# xmcd
#
# Track frame offsets: 
#        150
#        16605
#        36220
#
# Disc length: 797 seconds
#
# Revision: 0
# Processed by: cddbd v1.5.2PL0 Copyright (c) Steve Scherf et al.
# Submitted via: ExactAudioCopy v0.99pb5
#
DISCID=15031b03
DTITLE=Gabrielle - Sunshin
DYEAR=1999
DGENRE=R&B
TTITLE0=Sunshine (Radio Edit)
TTITLE1=Sunshine (K-Gee Edit)
TTITLE2=Sunshine (Wookie Main Mix)
EXTD=
EXTT0=
EXTT1=
EXTT2=
PLAYORDER=
